<svg width="442" height="594" viewBox="0 0 442 594" fill="none" xmlns="http://www.w3.org/2000/svg">
<rect y="13" width="442" height="568" fill="#F9F8FC"/>
<circle cx="13" cy="13" r="13" fill="white"/>
<circle cx="169" cy="13" r="13" fill="white"/>
<circle cx="39" cy="13" r="13" fill="white"/>
<circle cx="195" cy="13" r="13" fill="white"/>
<circle cx="65" cy="13" r="13" fill="white"/>
<circle cx="221" cy="13" r="13" fill="white"/>
<circle cx="91" cy="13" r="13" fill="white"/>
<circle cx="247" cy="13" r="13" fill="white"/>
<circle cx="325" cy="13" r="13" fill="white"/>
<circle cx="117" cy="13" r="13" fill="white"/>
<circle cx="273" cy="13" r="13" fill="white"/>
<circle cx="351" cy="13" r="13" fill="white"/>
<circle cx="403" cy="13" r="13" fill="white"/>
<circle cx="143" cy="13" r="13" fill="white"/>
<circle cx="299" cy="13" r="13" fill="white"/>
<circle cx="377" cy="13" r="13" fill="white"/>
<circle cx="429" cy="13" r="13" fill="white"/>
<circle cx="13" cy="581" r="13" fill="white"/>
<circle cx="169" cy="581" r="13" fill="white"/>
<circle cx="39" cy="581" r="13" fill="white"/>
<circle cx="195" cy="581" r="13" fill="white"/>
<circle cx="65" cy="581" r="13" fill="white"/>
<circle cx="221" cy="581" r="13" fill="white"/>
<circle cx="91" cy="581" r="13" fill="white"/>
<circle cx="247" cy="581" r="13" fill="white"/>
<circle cx="325" cy="581" r="13" fill="white"/>
<circle cx="117" cy="581" r="13" fill="white"/>
<circle cx="273" cy="581" r="13" fill="white"/>
<circle cx="351" cy="581" r="13" fill="white"/>
<circle cx="403" cy="581" r="13" fill="white"/>
<circle cx="143" cy="581" r="13" fill="white"/>
<circle cx="299" cy="581" r="13" fill="white"/>
<circle cx="377" cy="581" r="13" fill="white"/>
<circle cx="429" cy="581" r="13" fill="white"/>
</svg>
