<svg width="34" height="34" viewBox="0 0 34 34" fill="none" xmlns="http://www.w3.org/2000/svg">
<path opacity="0.2" d="M16.9375 32.875C25.7395 32.875 32.875 25.7395 32.875 16.9375C32.875 8.13546 25.7395 1 16.9375 1C8.13546 1 1 8.13546 1 16.9375C1 25.7395 8.13546 32.875 16.9375 32.875Z" stroke="#333333" stroke-miterlimit="10" stroke-linecap="round" stroke-linejoin="round"/>
<mask id="mask0" mask-type="alpha" maskUnits="userSpaceOnUse" x="11" y="10" width="12" height="14">
<path fill-rule="evenodd" clip-rule="evenodd" d="M11.0686 13.4005C11.0686 13.0786 11.3296 12.8176 11.6515 12.8176H22.144C22.466 12.8176 22.727 13.0786 22.727 13.4005C22.727 13.7225 22.466 13.9835 22.144 13.9835H11.6515C11.3296 13.9835 11.0686 13.7225 11.0686 13.4005Z" fill="#061938"/>
<path fill-rule="evenodd" clip-rule="evenodd" d="M15.7319 11.6517C15.5773 11.6517 15.429 11.7131 15.3197 11.8224C15.2104 11.9317 15.149 12.08 15.149 12.2346V12.8175H18.6465V12.2346C18.6465 12.08 18.5851 11.9317 18.4757 11.8224C18.3664 11.7131 18.2182 11.6517 18.0636 11.6517H15.7319ZM19.8123 12.8175V12.2346C19.8123 11.7708 19.6281 11.326 19.3001 10.998C18.9722 10.6701 18.5273 10.4858 18.0636 10.4858H15.7319C15.2681 10.4858 14.8233 10.6701 14.4953 10.998C14.1674 11.326 13.9831 11.7708 13.9831 12.2346V12.8175H12.8173C12.4954 12.8175 12.2344 13.0785 12.2344 13.4004V21.5613C12.2344 22.0251 12.4186 22.4699 12.7466 22.7978C13.0745 23.1258 13.5193 23.31 13.9831 23.31H19.8123C20.2761 23.31 20.7209 23.1258 21.0489 22.7978C21.3768 22.4699 21.5611 22.0251 21.5611 21.5613V13.4004C21.5611 13.0785 21.3001 12.8175 20.9781 12.8175H19.8123ZM13.4002 13.9833V21.5613C13.4002 21.7159 13.4616 21.8641 13.5709 21.9735C13.6803 22.0828 13.8285 22.1442 13.9831 22.1442H19.8123C19.9669 22.1442 20.1152 22.0828 20.2245 21.9735C20.3338 21.8641 20.3952 21.7159 20.3952 21.5613V13.9833H13.4002Z" fill="#061938"/>
</mask>
<g mask="url(#mask0)">
<rect x="9.90283" y="9.90283" width="13.99" height="13.99" fill="#828282"/>
</g>
</svg>
