<svg width="16" height="16" viewBox="0 0 16 16" fill="none" xmlns="http://www.w3.org/2000/svg">
<mask id="mask0" mask-type="alpha" maskUnits="userSpaceOnUse" x="0" y="0" width="15" height="15">
<path fill-rule="evenodd" clip-rule="evenodd" d="M0.666748 1.33317C0.666748 0.964981 0.965225 0.666504 1.33341 0.666504H8.00008C8.17689 0.666504 8.34646 0.736742 8.47149 0.861766L14.1996 6.58983C14.5721 6.96456 14.7811 7.47147 14.7811 7.99984C14.7811 8.52821 14.5721 9.03511 14.1996 9.40984L13.7267 8.93984L14.1982 9.41124L9.41841 14.191C9.41833 14.1911 9.4185 14.1909 9.41841 14.191C9.23272 14.3768 9.01198 14.5245 8.76929 14.6251C8.5265 14.7257 8.26624 14.7776 8.00341 14.7776C7.74059 14.7776 7.48033 14.7257 7.23753 14.6251C6.9948 14.5245 6.77427 14.377 6.58856 14.1911C6.58851 14.1911 6.5886 14.1912 6.58856 14.1911L0.862285 8.47152C0.737093 8.34647 0.666748 8.17678 0.666748 7.99984V1.33317ZM13.2539 8.46984C13.2541 8.46963 13.2544 8.46943 13.2546 8.46922C13.3783 8.34437 13.4478 8.17567 13.4478 7.99984C13.4478 7.824 13.3783 7.6553 13.2546 7.53045C13.2544 7.53025 13.2541 7.53004 13.2539 7.52984L7.72394 1.99984H2.00008V7.72347L7.53121 13.2482L7.53175 13.2487C7.59366 13.3107 7.66719 13.3599 7.74812 13.3934C7.82905 13.427 7.9158 13.4442 8.00341 13.4442C8.09103 13.4442 8.17778 13.427 8.25871 13.3934C8.33964 13.3599 8.41317 13.3107 8.47508 13.2487L13.2539 8.46984Z" fill="#061938"/>
</mask>
<g mask="url(#mask0)">
<rect width="16" height="16" fill="#828282"/>
</g>
</svg>
