<svg width="29" height="21" viewBox="0 0 29 21" fill="none" xmlns="http://www.w3.org/2000/svg">
<path d="M28.4027 3.17709C28.0683 1.93492 27.0888 0.955515 25.8467 0.621085C23.5773 0 14.4999 0 14.4999 0C14.4999 0 5.42255 0 3.1532 0.597197C1.93492 0.931627 0.931627 1.93492 0.597197 3.17709C0 5.44643 0 10.1523 0 10.1523C0 10.1523 0 14.8821 0.597197 17.1276C0.931627 18.3698 1.91103 19.3492 3.1532 19.6836C5.44643 20.3047 14.4999 20.3047 14.4999 20.3047C14.4999 20.3047 23.5773 20.3047 25.8467 19.7075C27.0888 19.3731 28.0683 18.3937 28.4027 17.1515C28.9999 14.8821 28.9999 10.1762 28.9999 10.1762C28.9999 10.1762 29.0238 5.44643 28.4027 3.17709Z" fill="#FF0000"/>
<path d="M11.6093 14.4999L19.1578 10.1523L11.6093 5.80469V14.4999Z" fill="white"/>
</svg>
