<svg width="30" height="30" viewBox="0 0 30 30" fill="none" xmlns="http://www.w3.org/2000/svg">
<g clip-path="url(#clip0)">
<path d="M25.0301 8.9233C24.4268 9.40747 23.6659 9.65188 22.8935 9.60968C22.1211 9.56749 21.3914 9.24164 20.8444 8.69463C20.2974 8.14762 19.9715 7.41794 19.9293 6.64551C19.8871 5.87307 20.1315 5.11224 20.6157 4.5089L17.43 1.32324L0.910156 17.8431L4.09581 21.0288C4.69915 20.5446 5.45999 20.3002 6.23242 20.3424C7.00486 20.3846 7.73454 20.7105 8.28155 21.2575C8.82856 21.8045 9.1544 22.5341 9.1966 23.3066C9.2388 24.079 8.99438 24.8399 8.51022 25.4432L11.6959 28.6289L28.2158 12.109L25.0301 8.9233Z" stroke="#333333" stroke-width="1.34428" stroke-miterlimit="10" stroke-linecap="round" stroke-linejoin="round"/>
<path d="M12.9692 22.2572L13.6063 22.8944M15.5177 7.05713L16.1549 7.69426L15.5177 7.05713ZM18.0662 9.56014L18.7034 10.1973L18.0662 9.56014ZM20.6148 12.1087L21.2519 12.7458L20.6148 12.1087ZM23.1178 14.6572L23.7549 15.2943L23.1178 14.6572ZM5.36914 14.6572L6.00627 15.2943L5.36914 14.6572ZM7.87215 17.2057L8.50928 17.8428L7.87215 17.2057ZM10.4207 19.7542L11.0578 20.3914L10.4207 19.7542Z" stroke="#333333" stroke-width="1.34428" stroke-miterlimit="10" stroke-linecap="round" stroke-linejoin="round"/>
</g>
<defs>
<clipPath id="clip0">
<rect width="29.126" height="29.126" fill="white"/>
</clipPath>
</defs>
</svg>
