<svg width="36" height="10" viewBox="0 0 36 10" fill="none" xmlns="http://www.w3.org/2000/svg">
<path d="M1 4.41703C0.678072 4.41703 0.417098 4.67801 0.417098 4.99994C0.417098 5.32186 0.678072 5.58284 1 5.58284L1 4.41703ZM35.125 4.99994L35.5372 5.41211C35.6465 5.30279 35.7079 5.15453 35.7079 4.99994C35.7079 4.84534 35.6465 4.69708 35.5372 4.58776L35.125 4.99994ZM31.1654 0.216C30.9378 -0.011637 30.5687 -0.011637 30.3411 0.216C30.1134 0.443638 30.1134 0.81271 30.3411 1.04035L31.1654 0.216ZM30.3411 8.95952C30.1134 9.18716 30.1134 9.55623 30.3411 9.78387C30.5687 10.0115 30.9378 10.0115 31.1654 9.78387L30.3411 8.95952ZM1 5.58284L35.125 5.58284V4.41703L1 4.41703L1 5.58284ZM35.5372 4.58776L31.1654 0.216L30.3411 1.04035L34.7128 5.41211L35.5372 4.58776ZM34.7128 4.58776L30.3411 8.95952L31.1654 9.78387L35.5372 5.41211L34.7128 4.58776Z" fill="#202020"/>
</svg>
