<svg width="18" height="18" viewBox="0 0 18 18" fill="none" xmlns="http://www.w3.org/2000/svg">
<mask id="mask0" mask-type="alpha" maskUnits="userSpaceOnUse" x="0" y="0" width="18" height="18">
<path fill-rule="evenodd" clip-rule="evenodd" d="M8.66696 1.75868C8.66674 1.75879 8.66651 1.7589 8.66629 1.75902L2.66795 4.75819L2.66629 4.75902C2.54133 4.82111 2.43618 4.91683 2.36264 5.03541C2.28913 5.15395 2.25014 5.29064 2.25004 5.43012C2.25004 5.43008 2.25004 5.43017 2.25004 5.43012V12.5751C2.24906 12.7149 2.28715 12.8521 2.36004 12.9714C2.43281 13.0905 2.53735 13.1869 2.6619 13.2498C2.6617 13.2497 2.66211 13.2499 2.6619 13.2498L8.66045 16.249C8.76465 16.3012 8.87977 16.3284 8.99629 16.3284C9.1128 16.3284 9.22771 16.3013 9.33191 16.2492L15.3321 13.249L15.3338 13.2482C15.4587 13.1861 15.5639 13.0904 15.6374 12.9718C15.711 12.8532 15.75 12.7165 15.75 12.577V5.43027C15.75 5.29073 15.711 5.15399 15.6374 5.03541C15.5639 4.91683 15.4587 4.82111 15.3338 4.75902L15.3321 4.75819L9.33379 1.75902C9.33356 1.7589 9.33334 1.75879 9.33311 1.75868C9.22958 1.70737 9.11559 1.68066 9.00004 1.68066C8.88448 1.68066 8.77049 1.70737 8.66696 1.75868ZM9.66754 1.08737L10.0013 0.41572C9.69016 0.261118 9.34746 0.180664 9.00004 0.180664C8.65262 0.180664 8.30991 0.261118 7.99879 0.41572L7.99713 0.416548L1.99879 3.41572C1.99848 3.41587 1.99817 3.41603 1.99786 3.41618C1.6234 3.60247 1.30827 3.88944 1.08785 4.2449C0.867248 4.60064 0.750259 5.01088 0.750036 5.42947L0.750036 12.5675C0.747659 12.9858 0.861955 13.3966 1.08012 13.7536C1.29878 14.1114 1.61307 14.401 1.98755 14.5896L1.98963 14.5907L7.98941 17.5906C8.302 17.747 8.64674 17.8284 8.99629 17.8284C9.34575 17.8284 9.69041 17.747 10.0029 17.5907C10.003 17.5907 10.0029 17.5907 10.0029 17.5907L16.0013 14.5915C16.0015 14.5914 16.0018 14.5913 16.002 14.5911C16.3766 14.4049 16.6918 14.1179 16.9122 13.7623C17.1328 13.4066 17.2498 12.9964 17.25 12.5778V5.42987C17.2498 5.01127 17.1328 4.60064 16.9122 4.2449C16.6918 3.88945 16.3767 3.60249 16.0022 3.4162C16.0019 3.41604 16.0016 3.41588 16.0013 3.41572L10.0029 0.416548L9.66754 1.08737Z" fill="#061938"/>
<path fill-rule="evenodd" clip-rule="evenodd" d="M1.06922 4.28446C1.25446 3.91397 1.70496 3.76381 2.07545 3.94905L9.00004 7.41134L15.9246 3.94905C16.2951 3.76381 16.7456 3.91397 16.9309 4.28446C17.1161 4.65494 16.9659 5.10545 16.5954 5.29069L9.33545 8.92069C9.1243 9.02626 8.87577 9.02626 8.66463 8.92069L1.40463 5.29069C1.03414 5.10545 0.883974 4.65494 1.06922 4.28446Z" fill="#061938"/>
<path fill-rule="evenodd" clip-rule="evenodd" d="M9.00004 7.49987C9.41425 7.49987 9.75004 7.83565 9.75004 8.24987V17.0699C9.75004 17.4841 9.41425 17.8199 9.00004 17.8199C8.58582 17.8199 8.25004 17.4841 8.25004 17.0699V8.24987C8.25004 7.83565 8.58582 7.49987 9.00004 7.49987Z" fill="#061938"/>
</mask>
<g mask="url(#mask0)">
<rect width="18" height="18" fill="#828282"/>
</g>
</svg>
