<svg width="8" height="7" viewBox="0 0 8 7" fill="none" xmlns="http://www.w3.org/2000/svg">
<path d="M4.20228 3.916L5.30828 5.092L6.28828 6.464L5.56028 6.996L4.55228 5.638L3.78228 4.224L3.99228 4.07L4.20228 3.916ZM3.78228 3.916L3.99228 4.07L4.20228 4.224L3.43228 5.638L2.42428 6.996L1.69628 6.464L2.67628 5.092L3.78228 3.916ZM0.996281 2.628L2.62028 3.132L4.07628 3.818L3.99228 4.07L3.90828 4.322L2.32628 4.014L0.730281 3.482L0.996281 2.628ZM4.45428 0.78V2.474L4.25828 4.07H3.99228H3.72628L3.53028 2.474V0.78H4.45428ZM6.98828 2.628L7.25428 3.482L5.65828 4.014L4.07628 4.322L3.99228 4.07L3.90828 3.818L5.36428 3.132L6.98828 2.628Z" fill="#4F4F4F"/>
</svg>
