<svg width="16" height="16" viewBox="0 0 16 16" fill="none" xmlns="http://www.w3.org/2000/svg">
<mask id="mask0" mask-type="alpha" maskUnits="userSpaceOnUse" x="0" y="0" width="15" height="15">
<path fill-rule="evenodd" clip-rule="evenodd" d="M0.666504 1.33366C0.666504 0.965469 0.964981 0.666992 1.33317 0.666992H7.99984C8.17665 0.666992 8.34622 0.73723 8.47124 0.862254L14.1993 6.59032C14.5718 6.96505 14.7809 7.47195 14.7809 8.00033C14.7809 8.5287 14.5718 9.0356 14.1993 9.41033L13.7265 8.94032L14.1979 9.41173L9.41817 14.1915C9.41808 14.1916 9.41826 14.1914 9.41817 14.1915C9.23248 14.3773 9.01173 14.525 8.76905 14.6256C8.52625 14.7262 8.266 14.778 8.00317 14.778C7.74034 14.778 7.48009 14.7262 7.23729 14.6256C6.99455 14.525 6.77403 14.3775 6.58831 14.1916C6.58826 14.1916 6.58836 14.1917 6.58831 14.1916L0.862041 8.472C0.736848 8.34696 0.666504 8.17727 0.666504 8.00033V1.33366ZM13.2537 8.47032C13.2539 8.47012 13.2541 8.46991 13.2543 8.46971C13.3781 8.34486 13.4476 8.17616 13.4476 8.00033C13.4476 7.82449 13.3781 7.65579 13.2543 7.53094C13.2541 7.53074 13.2539 7.53053 13.2537 7.53032L7.72369 2.00033H1.99984V7.72396L7.53097 13.2486L7.5315 13.2492C7.59342 13.3112 7.66695 13.3603 7.74788 13.3939C7.82881 13.4274 7.91556 13.4447 8.00317 13.4447C8.09078 13.4447 8.17753 13.4274 8.25846 13.3939C8.3394 13.3603 8.41292 13.3112 8.47484 13.2492L13.2537 8.47032Z" fill="#061938"/>
</mask>
<g mask="url(#mask0)">
<rect width="16" height="16" fill="#F2F2F2"/>
</g>
</svg>
