<svg width="89" height="6" viewBox="0 0 89 6" fill="none" xmlns="http://www.w3.org/2000/svg">
<path d="M-14 5L-10 3L-9.84467 2.92574C-7.28144 1.7002 -4.31791 1.62284 -1.69423 2.71296L-0.0416854 3.39958C2.39997 4.41407 5.16538 4.29615 7.51181 3.07749V3.07749C10.0278 1.77079 13.0143 1.73441 15.5613 2.97944L15.666 3.03058C18.2082 4.27327 21.1816 4.27327 23.7239 3.03058L23.8444 2.97168C26.3967 1.72407 29.3749 1.69108 31.9542 2.88185L32.4075 3.09112C35.0239 4.29899 38.0449 4.26553 40.6339 3V3C43.2229 1.73447 46.2439 1.70101 48.8603 2.90888L49.255 3.09112C51.8714 4.29899 54.8924 4.26553 57.4814 3V3C60.0703 1.73447 63.0913 1.70101 65.7077 2.90888L66.2976 3.18121C68.7828 4.32853 71.659 4.26162 74.0881 3V3C76.5173 1.73838 79.3935 1.67147 81.8787 2.81878L82.5658 3.13599C85.1127 4.31183 88.0604 4.24326 90.55 2.95027V2.95027C92.9303 1.71401 95.7357 1.59439 98.2126 2.62353L100.166 3.43502C102.545 4.42373 105.246 4.27217 107.5 3.02346V3.02346C109.802 1.74814 112.567 1.61863 114.978 2.67319L115.922 3.08576C118.69 4.2964 121.857 4.1907 124.538 2.79819L128 1" stroke="#2D2D2D" stroke-linecap="round"/>
</svg>
