<svg width="131" height="24" viewBox="0 0 131 24" fill="none" xmlns="http://www.w3.org/2000/svg">
<mask id="mask0" mask-type="alpha" maskUnits="userSpaceOnUse" x="0" y="0" width="131" height="24">
<rect width="131" height="24" fill="#C4C4C4"/>
</mask>
<g mask="url(#mask0)">
<path d="M-56 11.9998L-50.6667 9.33317L-50.4596 9.23415C-47.0419 7.60011 -43.0906 7.49695 -39.5923 8.95045L-37.3889 9.86594C-34.1334 11.2186 -30.4462 11.0614 -27.3176 9.4365V9.4365C-23.963 7.69422 -19.9809 7.64572 -16.5849 9.30576L-16.4454 9.37395C-13.0557 11.0309 -9.09115 11.0309 -5.7015 9.37395L-5.54083 9.29541C-2.13774 7.63193 1.83322 7.58794 5.27232 9.17564L5.87673 9.45467C9.36523 11.0652 13.3932 11.0205 16.8452 9.33317V9.33317C20.2972 7.64579 24.3252 7.60118 27.8137 9.21168L28.34 9.45467C31.8285 11.0652 35.8565 11.0205 39.3085 9.33317V9.33317C42.7604 7.64579 46.7884 7.60118 50.2769 9.21168L51.0635 9.57479C54.3771 11.1045 58.212 11.0153 61.4508 9.33317V9.33317C64.6897 7.65101 68.5246 7.5618 71.8382 9.09155L72.7543 9.51449C76.1503 11.0823 80.0806 10.9909 83.4 9.26686V9.26686C86.5737 7.61852 90.3142 7.45903 93.6167 8.83121L96.2209 9.9132C99.3936 11.2315 102.995 11.0294 106 9.36444V9.36444C109.069 7.66402 112.756 7.49135 115.971 8.89742L117.229 9.44752C120.919 11.0617 125.142 10.9208 128.717 9.06409L133.333 6.6665" stroke="#2D2D2D" stroke-width="1.33333" stroke-linecap="round"/>
<path d="M313.333 6.6665L308.717 9.06409C305.142 10.9208 300.92 11.0617 297.229 9.44752L295.971 8.89742C292.756 7.49135 289.07 7.66402 286 9.36444V9.36444C282.995 11.0294 279.394 11.2315 276.221 9.9132L273.617 8.83121C270.314 7.45903 266.574 7.61852 263.4 9.26686V9.26686C260.081 10.9909 256.15 11.0823 252.754 9.51449L251.838 9.09155C248.525 7.5618 244.69 7.651 241.451 9.33317V9.33317C238.212 11.0153 234.377 11.1045 231.064 9.57479L230.277 9.21168C226.789 7.60118 222.761 7.64579 219.309 9.33317V9.33317C215.857 11.0205 211.829 11.0652 208.34 9.45467L207.814 9.21167C204.325 7.60118 200.297 7.6458 196.845 9.33317V9.33317C193.393 11.0205 189.365 11.0652 185.877 9.45467L185.272 9.17564C181.833 7.58794 177.862 7.63193 174.459 9.29541L174.299 9.37395C170.909 11.0309 166.944 11.0309 163.555 9.37395L163.207 9.20413C159.942 7.60801 156.113 7.65464 152.888 9.32983V9.32983C149.655 11.0088 145.817 11.0516 142.548 9.44534L138.577 7.4945C135.541 6.00275 131.892 6.60794 129.5 9V9" stroke="#2D2D2D" stroke-width="1.33333" stroke-linecap="round"/>
</g>
</svg>
