<svg width="52" height="52" viewBox="0 0 52 52" fill="none" xmlns="http://www.w3.org/2000/svg">
<g opacity="0.7" clip-path="url(#clip0)">
<mask id="mask0" mask-type="alpha" maskUnits="userSpaceOnUse" x="20" y="18" width="14" height="17">
<path fill-rule="evenodd" clip-rule="evenodd" d="M21.0202 18.1888C21.2878 18.0427 21.6137 18.0544 21.8701 18.2193L33.5368 25.7193C33.7753 25.8726 33.9195 26.1367 33.9195 26.4202C33.9195 26.7038 33.7753 26.9679 33.5368 27.1212L21.8701 34.6212C21.6137 34.7861 21.2878 34.7978 21.0202 34.6517C20.7526 34.5056 20.5862 34.2251 20.5862 33.9202V18.9202C20.5862 18.6154 20.7526 18.3349 21.0202 18.1888ZM22.2528 20.4466V32.3939L31.5451 26.4202L22.2528 20.4466Z" fill="#061938"/>
</mask>
<g mask="url(#mask0)">
<rect x="16.4194" y="16.4199" width="20" height="20" fill="white"/>
</g>
</g>
<path opacity="0.2" d="M26.0625 51.125C39.9041 51.125 51.125 39.9041 51.125 26.0625C51.125 12.2209 39.9041 1 26.0625 1C12.2209 1 1 12.2209 1 26.0625C1 39.9041 12.2209 51.125 26.0625 51.125Z" stroke="white" stroke-width="1.67083" stroke-miterlimit="10" stroke-linecap="round" stroke-linejoin="round"/>
<defs>
<clipPath id="clip0">
<rect width="22.0157" height="22.0157" fill="white" transform="translate(16 13)"/>
</clipPath>
</defs>
</svg>
