<svg width="241" height="24" viewBox="0 0 241 24" fill="none" xmlns="http://www.w3.org/2000/svg">
<mask id="mask0" mask-type="alpha" maskUnits="userSpaceOnUse" x="0" y="0" width="241" height="24">
<rect width="241" height="24" fill="#C4C4C4"/>
</mask>
<g mask="url(#mask0)">
<path d="M0 11.9998L5.33333 9.33317L5.54044 9.23415C8.95807 7.60011 12.9094 7.49695 16.4077 8.95045L18.6111 9.86594C21.8666 11.2186 25.5538 11.0614 28.6824 9.4365V9.4365C32.037 7.69422 36.0191 7.64572 39.4151 9.30576L39.5546 9.37395C42.9443 11.0309 46.9088 11.0309 50.2985 9.37395L50.4592 9.29541C53.8623 7.63193 57.8332 7.58794 61.2723 9.17564L61.8767 9.45467C65.3652 11.0652 69.3932 11.0205 72.8452 9.33317V9.33317C76.2972 7.64579 80.3252 7.60118 83.8137 9.21168L84.34 9.45467C87.8285 11.0652 91.8565 11.0205 95.3085 9.33317V9.33317C98.7604 7.64579 102.788 7.60118 106.277 9.21168L107.063 9.57479C110.377 11.1045 114.212 11.0153 117.451 9.33317V9.33317C120.69 7.65101 124.525 7.5618 127.838 9.09155L128.754 9.51449C132.15 11.0823 136.081 10.9909 139.4 9.26686V9.26686C142.574 7.61852 146.314 7.45903 149.617 8.83121L152.221 9.9132C155.394 11.2315 158.995 11.0294 162 9.36444V9.36444C165.069 7.66402 168.756 7.49135 171.971 8.89742L173.229 9.44752C176.919 11.0617 181.142 10.9208 184.717 9.06409L189.333 6.6665" stroke="#2D2D2D" stroke-width="1.33333" stroke-linecap="round"/>
<path d="M369.333 6.6665L364.717 9.06409C361.142 10.9208 356.92 11.0617 353.229 9.44752L351.971 8.89742C348.756 7.49135 345.07 7.66402 342 9.36444V9.36444C338.995 11.0294 335.394 11.2315 332.221 9.9132L329.617 8.83121C326.314 7.45903 322.574 7.61852 319.4 9.26686V9.26686C316.081 10.9909 312.15 11.0823 308.754 9.51449L307.838 9.09155C304.525 7.5618 300.69 7.651 297.451 9.33317V9.33317C294.212 11.0153 290.377 11.1045 287.064 9.57479L286.277 9.21168C282.789 7.60118 278.761 7.64579 275.309 9.33317V9.33317C271.857 11.0205 267.829 11.0652 264.34 9.45467L263.814 9.21167C260.325 7.60118 256.297 7.6458 252.845 9.33317V9.33317C249.393 11.0205 245.365 11.0652 241.877 9.45467L241.272 9.17564C237.833 7.58794 233.862 7.63193 230.459 9.29541L230.299 9.37395C226.909 11.0309 222.944 11.0309 219.555 9.37395L219.207 9.20413C215.942 7.60801 212.113 7.65464 208.888 9.32983V9.32983C205.655 11.0088 201.817 11.0516 198.548 9.44534L194.577 7.4945C191.541 6.00275 187.892 6.60794 185.5 9V9" stroke="#2D2D2D" stroke-width="1.33333" stroke-linecap="round"/>
</g>
</svg>
