<svg width="40" height="18" viewBox="0 0 40 18" fill="none" xmlns="http://www.w3.org/2000/svg">
<mask id="mask0" mask-type="alpha" maskUnits="userSpaceOnUse" x="0" y="0" width="40" height="18">
<rect width="40" height="18" fill="#C4C4C4"/>
</mask>
<g mask="url(#mask0)">
<path d="M-38 9L-34 7L-33.8447 6.92574C-31.2814 5.7002 -28.3179 5.62284 -25.6942 6.71296L-24.0417 7.39958C-21.6 8.41407 -18.8346 8.29615 -16.4882 7.07749V7.07749C-13.9722 5.77079 -10.9857 5.73441 -8.43866 6.97944L-8.33404 7.03058C-5.79181 8.27327 -2.81836 8.27327 -0.276125 7.03058L-0.155624 6.97168C2.3967 5.72407 5.37492 5.69108 7.95424 6.88185L8.40755 7.09112C11.0239 8.29899 14.0449 8.26553 16.6339 7V7C19.2229 5.73447 22.2439 5.70101 24.8603 6.90888L25.255 7.09112C27.8714 8.29899 30.8924 8.26553 33.4814 7V7C36.0703 5.73447 39.0913 5.70101 41.7077 6.90888L42.2976 7.18121C44.7828 8.32853 47.659 8.26162 50.0881 7V7C52.5173 5.73838 55.3935 5.67147 57.8787 6.81878L58.5658 7.13599C61.1127 8.31183 64.0604 8.24326 66.55 6.95027V6.95027C68.9303 5.71401 71.7357 5.59439 74.2126 6.62353L76.1656 7.43502C78.5452 8.42373 81.246 8.27217 83.5 7.02346V7.02346C85.8021 5.74814 88.567 5.61863 90.9782 6.67319L91.9215 7.08576C94.6896 8.2964 97.8566 8.1907 100.538 6.79819L104 5" stroke="#333333" stroke-linecap="round"/>
</g>
</svg>
