<svg width="71" height="6" viewBox="0 0 71 6" fill="none" xmlns="http://www.w3.org/2000/svg">
<path d="M-23 5L-19 3L-18.8447 2.92574C-16.2814 1.7002 -13.3179 1.62284 -10.6942 2.71296L-9.04169 3.39958C-6.60003 4.41407 -3.83462 4.29615 -1.48819 3.07749V3.07749C1.02777 1.77079 4.01429 1.73441 6.56134 2.97944L6.66596 3.03058C9.20819 4.27327 12.1816 4.27327 14.7239 3.03058L14.8444 2.97168C17.3967 1.72407 20.3749 1.69108 22.9542 2.88185L23.4075 3.09112C26.0239 4.29899 29.0449 4.26553 31.6339 3V3C34.2229 1.73447 37.2439 1.70101 39.8603 2.90888L40.255 3.09112C42.8714 4.29899 45.8924 4.26553 48.4814 3V3C51.0703 1.73447 54.0913 1.70101 56.7077 2.90888L57.2976 3.18121C59.7828 4.32853 62.659 4.26162 65.0881 3V3C67.5173 1.73838 70.3935 1.67147 72.8787 2.81878L73.5658 3.13599C76.1127 4.31183 79.0604 4.24326 81.55 2.95027V2.95027C83.9303 1.71401 86.7357 1.59439 89.2126 2.62353L91.1656 3.43502C93.5452 4.42373 96.246 4.27217 98.5 3.02346V3.02346C100.802 1.74814 103.567 1.61863 105.978 2.67319L106.922 3.08576C109.69 4.2964 112.857 4.1907 115.538 2.79819L119 1" stroke="#2D2D2D" stroke-linecap="round"/>
</svg>
