<svg width="98" height="5" viewBox="0 0 98 5" fill="none" xmlns="http://www.w3.org/2000/svg">
<path d="M1 3.70423L3.70423 2.35211L3.80924 2.30191C5.54212 1.47338 7.54563 1.42107 9.31939 2.15806L10.4366 2.62225C12.0873 3.3081 13.9569 3.22838 15.5432 2.4045V2.4045C17.2441 1.5211 19.2632 1.4965 20.9851 2.33822L21.0559 2.37279C22.7746 3.21291 24.7848 3.21291 26.5035 2.37279L26.5849 2.33297C28.3104 1.48951 30.3239 1.46721 32.0677 2.27224L32.3741 2.41372C34.1429 3.23031 36.1853 3.20768 37.9356 2.35211V2.35211C39.6859 1.49654 41.7283 1.47392 43.4971 2.29051L43.7639 2.41372C45.5328 3.23031 47.5751 3.20768 49.3254 2.35211V2.35211C51.0757 1.49654 53.1181 1.47392 54.8869 2.29051L55.2857 2.47462C56.9658 3.25027 58.9103 3.20504 60.5525 2.35211V2.35211C62.1948 1.49918 64.1392 1.45395 65.8194 2.2296L66.2839 2.44405C68.0058 3.23898 69.9986 3.19263 71.6817 2.31849V2.31849C73.2909 1.48271 75.1875 1.40184 76.862 2.0976L78.1824 2.64621C79.7911 3.31463 81.617 3.21217 83.1409 2.36797V2.36797C84.6972 1.50578 86.5664 1.41823 88.1965 2.13117L88.8343 2.41009C90.7056 3.22855 92.8467 3.15709 94.6593 2.21568L97 1" stroke="#2D2D2D" stroke-width="0.676056" stroke-linecap="round"/>
</svg>
